<svg xmlns="http://www.w3.org/2000/svg" xmlns:xlink="http://www.w3.org/1999/xlink" viewBox="0 0 75 75" version="1.1" x="0px" y="0px"><g><path style="" d="M 37.410156 25.390625 C 32.957031 25.390625 29.335938 29.011719 29.335938 33.464844 C 29.335938 37.914062 32.957031 41.539062 37.410156 41.539062 C 41.859375 41.539062 45.484375 37.917969 45.484375 33.464844 C 45.484375 29.011719 41.859375 25.390625 37.410156 25.390625 Z M 37.410156 36.851562 C 35.542969 36.851562 34.023438 35.332031 34.023438 33.464844 C 34.023438 31.597656 35.542969 30.078125 37.410156 30.078125 C 39.277344 30.078125 40.796875 31.597656 40.796875 33.464844 C 40.796875 35.332031 39.277344 36.851562 37.410156 36.851562 Z M 37.410156 36.851562 " stroke="none" fill-rule="nonzero" fill="rgb(0%,0%,0%)" fill-opacity="1"/><path style="" d="M 46.742188 48.800781 C 52.140625 45.511719 55.359375 39.78125 55.359375 33.464844 C 55.359375 23.570312 47.308594 15.515625 37.398438 15.515625 L 37.070312 15.519531 C 27.195312 15.519531 19.460938 23.402344 19.460938 33.464844 C 19.460938 39.78125 22.683594 45.511719 28.078125 48.800781 C 28.335938 48.957031 28.613281 49.03125 28.890625 49.03125 C 29.417969 49.03125 29.933594 48.761719 30.226562 48.28125 C 30.675781 47.542969 30.445312 46.582031 29.707031 46.132812 C 25.25 43.414062 22.585938 38.679688 22.585938 33.464844 C 22.585938 25.15625 28.949219 18.644531 37.085938 18.644531 L 37.414062 18.640625 C 45.585938 18.640625 52.238281 25.289062 52.238281 33.464844 C 52.238281 38.679688 49.578125 43.414062 45.117188 46.132812 C 44.378906 46.582031 44.148438 47.542969 44.597656 48.28125 C 45.042969 49.015625 46.003906 49.25 46.742188 48.800781 Z M 46.742188 48.800781 " stroke="none" fill-rule="nonzero" fill="rgb(0%,0%,0%)" fill-opacity="1"/><path style="" d="M 37.8125 5.859375 L 37.007812 5.859375 C 21.785156 5.859375 9.402344 18.242188 9.402344 33.464844 C 9.402344 43.070312 14.277344 51.839844 22.441406 56.917969 C 22.699219 57.078125 22.984375 57.152344 23.265625 57.152344 C 23.789062 57.152344 24.296875 56.890625 24.59375 56.414062 C 25.050781 55.683594 24.824219 54.71875 24.09375 54.261719 C 16.851562 49.757812 12.527344 41.984375 12.523438 33.464844 C 12.523438 19.964844 23.507812 8.984375 37.003906 8.984375 L 37.8125 8.984375 C 51.308594 8.984375 62.289062 19.964844 62.289062 33.464844 C 62.289062 41.984375 57.964844 49.757812 50.722656 54.261719 C 49.992188 54.71875 49.765625 55.683594 50.222656 56.414062 C 50.679688 57.148438 51.640625 57.367188 52.375 56.917969 C 60.539062 51.839844 65.414062 43.070312 65.417969 33.464844 C 65.417969 18.246094 53.03125 5.859375 37.8125 5.859375 Z M 37.8125 5.859375 " stroke="none" fill-rule="nonzero" fill="rgb(0%,0%,0%)" fill-opacity="1"/><path style="" d="M 39.113281 46.898438 C 38.261719 44.988281 36.851562 44.980469 35.980469 46.882812 L 27.148438 64.585938 C 26.277344 66.492188 27.484375 68.046875 29.832031 68.046875 L 33.296875 68.046875 C 35.644531 68.046875 39.484375 68.046875 41.832031 68.046875 L 44.964844 68.046875 C 47.308594 68.046875 48.535156 66.484375 47.683594 64.574219 Z M 39.113281 46.898438 " stroke="none" fill-rule="nonzero" fill="rgb(0%,0%,0%)" fill-opacity="1"/></g></svg>